<svg xmlns="http://www.w3.org/2000/svg" xmlns:xlink="http://www.w3.org/1999/xlink" fill="none" version="1.1" width="30.000001907348633" height="30.000001907348633" viewBox="0 0 30.000001907348633 30.000001907348633"><defs><clipPath id="master_svg0_8_0217"><rect x="0" y="0" width="30.000001907348633" height="30.000001907348633" rx="0"/></clipPath></defs><g clip-path="url(#master_svg0_8_0217)"><g style="mix-blend-mode:passthrough"><g><path d="M25,4.375L20.9375,4.375L20.9375,3.125C20.9375,2.625,20.5,2.1875,20,2.1875C19.5,2.1875,19.0625,2.625,19.0625,3.125L19.0625,4.375L10.9375,4.375L10.9375,3.125C10.9375,2.625,10.5,2.1875,10,2.1875C9.5,2.1875,9.0625,2.625,9.0625,3.125L9.0625,4.375L5,4.375C3.8125,4.375,2.8125,5.375,2.8125,6.5625L2.8125,24.6875C2.8125,25.875,3.8125,26.875,5,26.875L25,26.875C26.1875,26.875,27.1875,25.875,27.1875,24.6875L27.1875,6.5625C27.1875,5.375,26.1875,4.375,25,4.375ZM5,6.25L9.0625,6.25L9.0625,8.125C9.0625,8.625,9.5,9.0625,10,9.0625C10.5,9.0625,10.9375,8.625,10.9375,8.125L10.9375,6.25L19.0625,6.25L19.0625,8.125C19.0625,8.625,19.5,9.0625,20,9.0625C20.5,9.0625,20.9375,8.625,20.9375,8.125L20.9375,6.25L25,6.25C25.1875,6.25,25.3125,6.375,25.3125,6.5625L25.3125,12.25C25.1875,12.1875,25.125,12.1875,25,12.1875L5,12.1875C4.875,12.1875,4.8125,12.1875,4.6875,12.25L4.6875,6.5625C4.6875,6.375,4.8125,6.25,5,6.25ZM25,25L5,25C4.8125,25,4.6875,24.875,4.6875,24.6875L4.6875,14C4.8125,14.0625,4.875,14.0625,5,14.0625L25,14.0625C25.125,14.0625,25.1875,14.0625,25.3125,14L25.3125,24.6875C25.3125,24.875,25.1875,25,25,25Z" fill="#C0C0C0" fill-opacity="1"/></g><g><path d="M11.25,17.8125L8.75,17.8125C8.25,17.8125,7.8125,18.25,7.8125,18.75C7.8125,19.25,8.25,19.6875,8.75,19.6875L11.25,19.6875C11.75,19.6875,12.1875,19.25,12.1875,18.75C12.1875,18.250001,11.75,17.8125,11.25,17.8125ZM21.25,17.8125L15.625,17.8125C15.125,17.8125,14.6875,18.25,14.6875,18.75C14.6875,19.25,15.125,19.6875,15.625,19.6875L21.25,19.6875C21.75,19.6875,22.1875,19.25,22.1875,18.75C22.1875,18.250001,21.75,17.8125,21.25,17.8125Z" fill="#C0C0C0" fill-opacity="1"/></g></g></g></svg>